<svg version="1.2" xmlns="http://www.w3.org/2000/svg" viewBox="0 0 443 443" width="443" height="443">
	<style>
		.s0 { fill: #000000 } 
	</style>
	<path id="Layer 1" fill-rule="evenodd" class="s0" d="m219 12.65c-0.82 0.27-3.3 1.22-5.5 2.12-2.2 0.9-5.8 2.83-8 4.29-2.2 1.46-6.42 5.08-9.39 8.05-2.96 2.96-7.26 7.87-9.55 10.89-2.3 3.02-5.98 8.42-8.18 12-2.21 3.58-5.62 9.42-7.6 13-1.97 3.58-5.49 12.12-7.81 19-3.51 10.35-4.32 14.22-4.75 22.5-0.3 5.8-0.01 12.73 0.68 16.5 0.65 3.58 2.06 7.96 3.14 9.75 1.27 2.1 3.99 4.22 7.71 6 5.58 2.67 6.23 2.75 22.25 2.67 12.11-0.07 21.56-0.8 35.5-2.76 10.45-1.47 22.15-2.67 26-2.65 3.85 0.01 7.68 0.42 8.5 0.92 1.31 0.78 1.26 1.26-0.37 3.73-1.03 1.56-8.23 9.15-16 16.87-7.77 7.71-17.95 17.18-22.63 21.03-4.68 3.85-11.88 9.5-16 12.55-4.13 3.06-10.88 7.81-15 10.57-4.13 2.76-10.54 6.89-14.25 9.17l-6.75 4.15c-12.2-25.19-16.67-34.53-17.79-37-1.13-2.47-5.29-11.47-9.26-20-3.96-8.53-9.21-20-11.67-25.5-2.46-5.5-5.25-11.8-6.2-14l-1.73-4c11.35 5.81 15.33 7.5 16.15 7.5 0.82 0 1.5-0.68 1.5-1.5 0-0.83-2.27-4.76-5.05-8.75-2.78-3.99-6.72-9.32-8.75-11.86-2.04-2.53-9.97-12.2-17.64-21.5-7.67-9.29-15.32-18.14-17-19.66-1.68-1.53-3.51-2.77-4.06-2.76-0.65 0.01-0.71 2.87-0.16 8.27 0.46 4.54 1.4 12.08 2.08 16.76 1.17 8.08 1.5 8.82 6.66 15.11 3.16 3.85 6.94 10.1 9.07 15 2.01 4.61 9.05 20.76 15.63 35.89 6.58 15.12 16.57 37.62 22.19 50 5.63 12.37 10.63 23.29 11.13 24.25 0.78 1.52-0.88 2.54-12.35 7.62-7.29 3.23-18.43 7.51-24.75 9.52-6.33 2-15.33 4.11-20 4.68-5.9 0.72-11.18 0.71-17.25-0.02-4.81-0.58-11.56-2.19-15-3.59-3.44-1.4-8.05-3.6-10.25-4.89-2.2-1.28-5.83-4.3-8.07-6.7-2.31-2.49-5.04-6.96-6.32-10.37-1.25-3.3-2.88-9.15-3.64-13-0.76-3.85-1.58-10.6-1.81-15-0.24-4.4-0.02-12.28 0.5-17.5 0.52-5.23 1.85-13.1 2.97-17.5 1.11-4.4 3.34-11.26 4.95-15.25 1.6-3.99 2.92-8.82 2.92-10.75 0-2.44-0.45-3.5-1.5-3.5-0.83 0-2.34 1.24-3.37 2.75-1.03 1.51-3.06 5.11-4.5 8-1.45 2.89-4.24 10.54-6.2 17-1.96 6.46-4.25 16.7-5.08 22.75-1.03 7.48-1.33 14.83-0.95 23 0.32 6.6 1.28 15.82 2.15 20.5 0.93 5.06 3.04 11.53 5.21 16 2.59 5.33 5.68 9.55 10.69 14.59 3.97 3.99 9.89 8.65 13.55 10.66 3.57 1.96 8.75 4.3 11.5 5.19 2.75 0.89 5.56 1.83 6.25 2.09 0.69 0.26-2.22 3.09-6.5 6.32-4.26 3.21-10.25 8.5-13.31 11.75-3.06 3.24-7.4 8.6-9.65 11.9-2.25 3.3-5.54 9.6-7.31 14-2.12 5.29-3.37 10.37-3.7 15-0.4 5.69-0.06 8.13 1.79 13 1.49 3.91 3.88 7.59 6.86 10.56 2.51 2.5 6.82 5.87 9.57 7.47 2.75 1.61 7.92 3.98 11.5 5.27 3.57 1.29 9.42 3.01 13 3.83 4.16 0.96 14.42 1.69 28.5 2.03l22 0.54c3.77 12.63 7.21 21.03 10.07 26.8 3.77 7.59 6.69 11.96 10.57 15.78 3.51 3.46 7.26 6.01 10.86 7.37 3.41 1.29 7.97 2.1 12 2.14 4.82 0.04 7.9-0.57 11.9-2.37 2.97-1.33 6.91-4.11 8.75-6.17 1.84-2.06 4.4-6.11 5.68-9 1.28-2.89 3.29-8.85 4.46-13.25 1.17-4.4 3.55-16.32 5.28-26.5 1.73-10.18 3.44-18.84 3.79-19.26 0.35-0.41 4.09 6.56 8.31 15.5 4.21 8.94 9.09 19.86 10.84 24.26 1.75 4.4 5.39 15.65 8.09 25 2.7 9.35 5.24 17.39 5.65 17.86 0.41 0.47 1.2 0.63 1.75 0.36 0.55-0.28 1.31-3.14 1.7-6.36 0.38-3.22 0.25-9.46-0.3-13.86-0.54-4.4-2.34-13.4-3.99-20-1.65-6.6-5.2-18.3-7.89-26-2.69-7.7-7.13-19.18-9.85-25.5-2.73-6.32-5.86-13.52-6.96-16-1.86-4.19-1.9-4.87-0.54-10 0.8-3.02 2.38-8.2 3.51-11.5 1.13-3.3 3.92-9.58 6.19-13.96 2.27-4.38 6.16-10.01 8.63-12.5 2.47-2.5 6.97-5.84 10-7.43 3.04-1.6 7.73-3.11 10.5-3.37 3.31-0.31 6.35 0.08 9 1.17 2.2 0.9 4.34 1.63 4.75 1.61 0.41-0.01 0.75-1.15 0.75-2.52 0-1.38-1.27-5.31-2.83-8.75-1.58-3.49-4.45-7.68-6.5-9.5-2.09-1.85-5.28-3.52-7.42-3.88-2.06-0.35-5.78-0.33-8.25 0.04-2.48 0.37-6.53 1.79-9 3.16-2.48 1.36-6.48 4.38-8.91 6.71-2.42 2.32-5.88 6.02-7.68 8.22-1.8 2.2-5.33 8.05-7.86 13-2.52 4.95-5.3 11.48-6.18 14.5l-1.61 5.5c-2.9-6.2-6.4-13.85-9.65-21-3.24-7.15-7.97-17.39-10.5-22.75-2.54-5.36-4.39-10.2-4.11-10.75 0.28-0.55 2.53-2.35 5-4 2.47-1.65 4.61-3 4.75-3.01 0.14 0 0.58 3.49 0.99 7.75 0.41 4.27 0.86 7.9 1 8.06 0.14 0.17 2.06 0.36 4.26 0.44 2.2 0.07 7.94-0.18 12.75-0.56 5.67-0.44 9.28-1.21 10.25-2.18 0.89-0.89 1.5-3.33 1.5-6 0-2.48-0.52-5.51-1.15-6.75-0.63-1.24-1.64-2.6-2.25-3.02-0.6-0.42-6.28-0.48-12.6-0.13-7.51 0.41-11.15 0.3-10.5-0.34 0.55-0.54 5.05-4.05 10-7.8 4.95-3.75 13.28-10.49 18.5-14.98 5.22-4.49 13.57-12.17 18.54-17.07 4.97-4.9 12.62-13.04 17-18.09 4.38-5.05 9.53-11.78 11.46-14.96 3.33-5.5 3.5-6.23 3.46-14.82-0.02-4.97-0.63-10.84-1.36-13.04-0.72-2.2-2.36-5.58-3.63-7.5-1.33-1.99-4.18-4.35-6.65-5.47-4.11-1.86-5.01-1.9-18.32-0.67-7.7 0.72-20.97 2.16-29.5 3.21-8.53 1.05-19.21 1.91-23.75 1.92-4.54 0.01-10.61-0.48-13.5-1.09-2.89-0.6-6.26-1.73-7.5-2.5-1.52-0.95-2.25-2.37-2.25-4.4 0-1.65 1.15-6.04 2.56-9.75 1.41-3.71 4.26-9.9 6.33-13.75 2.08-3.85 5.06-9.25 6.63-12 1.56-2.75 5.19-8.15 8.05-12 2.87-3.85 7.4-9.06 10.07-11.59 2.67-2.52 7.22-5.78 10.11-7.25 2.89-1.46 7.16-2.95 9.5-3.31 3.88-0.58 4.62-0.32 8.5 3 4.13 3.55 4.34 3.61 7.25 2.15 1.95-0.97 3.31-2.64 3.88-4.75 0.53-1.91 0.51-5.31-0.03-8.25-0.51-2.75-1.92-6.78-3.14-8.96-1.21-2.18-3.78-5.01-5.71-6.28-2.32-1.53-4.85-2.28-7.5-2.21-2.2 0.06-4.68 0.33-5.5 0.6zm29.75 5.97c-1.3 0.28-1.69 1.22-1.5 3.63l0.25 3.25c13.18 0.84 17.9 1.59 19 2.21 1.1 0.62 3.42 2.63 5.16 4.46 1.97 2.07 4.11 6.16 5.65 10.83 1.37 4.12 3.55 9.25 4.84 11.39 1.29 2.14 3.14 4.27 4.1 4.75 0.96 0.47 2.76 0.87 4 0.89 1.24 0.01 3.37-1.13 4.75-2.53 2.32-2.36 2.41-2.82 1.29-6.27-0.67-2.05-1.89-4.63-2.72-5.73-1.42-1.89-1.51-1.78-1.49 2 0 2.38-0.64 4.61-1.58 5.5-1.42 1.34-1.88 1.28-4.19-0.5-1.61-1.24-3.43-4.47-4.81-8.5-1.21-3.58-3.33-8.75-4.71-11.5-1.38-2.75-4.31-6.58-6.5-8.5-2.2-1.93-5.75-4.06-7.9-4.73-2.14-0.68-5.69-1.19-7.89-1.14-2.2 0.06-4.79 0.27-5.75 0.49zm-87.41 4.61c-0.55 0.7-1.7 2.84-2.55 4.77-0.86 1.92-2.12 5.3-2.81 7.5-0.69 2.2-1.27 6.02-1.28 8.5-0.02 2.67 0.76 5.92 1.93 8 1.27 2.25 2.84 3.61 4.42 3.82 1.36 0.18 3.57-0.57 4.95-1.66 2-1.59 2.5-2.88 2.5-6.49 0-2.48-0.34-4.77-0.75-5.09-0.41-0.32-1.65 0.32-2.75 1.42-1.1 1.1-2.9 2-4 2-1.27 0-2.17-0.82-2.46-2.25-0.25-1.24-0.01-4.28 0.53-6.75 0.55-2.48 1.57-6.67 2.28-9.31 0.71-2.65 1.22-5.03 1.14-5.28-0.08-0.25-0.6 0.12-1.15 0.82zm-33.43 13.52c-0.57 1.51-1.68 7.02-2.47 12.25-0.79 5.22-1.43 13.77-1.42 19 0 5.22 0.67 11.97 1.48 15 0.81 3.03 3.17 7.94 5.24 10.92 2.65 3.82 5.02 5.97 8.01 7.25 4.21 1.81 4.29 1.81 8.41-0.42 2.29-1.24 5.1-3.52 6.25-5.07 1.5-2.03 2.08-4.28 2.06-8-0.02-3.35-0.91-7.05-2.5-10.47-1.36-2.91-2.92-5.28-3.47-5.26-0.55 0.01-1.56 1.49-2.24 3.29-0.68 1.79-2.84 4.38-4.79 5.76-3.12 2.19-3.87 2.34-6.02 1.25-1.35-0.69-3.23-2.94-4.19-5-1.48-3.19-1.72-6.72-1.65-23.5 0.05-10.86-0.3-19.75-0.78-19.75-0.48 0-1.34 1.24-1.92 2.75zm178.36 18.07c-6.09 10.27-14.61 25.03-18.94 32.79-6.25 11.22-7.91 15.07-8.1 18.75-0.13 2.55 0.22 5.76 0.77 7.14 0.55 1.37 2.01 2.89 3.25 3.36 1.27 0.49 3.56 0.48 5.25-0.02 1.65-0.48 3.37-1.21 3.83-1.61 0.46-0.4 0.35-1.74-0.25-2.98-0.82-1.7-1.69-2.13-3.58-1.75-1.38 0.28-3.63 0.72-5 1l-2.5 0.5c2.4-6.59 4.88-11.54 7.05-15.25 2.17-3.71 3.95-6.97 3.95-7.25 0-0.28 1.05-2.19 2.33-4.25 1.28-2.06 3.8-6.45 5.6-9.75 1.8-3.3 6.04-10.62 9.42-16.26 3.38-5.65 6.92-11.72 7.85-13.5 0.94-1.78 1.72-4.14 1.74-5.24 0.01-1.1-0.34-2.53-0.79-3.18-0.52-0.76-4.77 5.5-11.88 17.5zm-61.66-4.32c-0.44 2.2-0.53 5.35-0.22 7 0.32 1.65 1.51 3.9 2.65 5 1.64 1.57 2.44 1.76 3.77 0.89 0.93-0.61 1.8-1.73 1.94-2.5 0.14-0.76-0.17-2.06-0.67-2.89-0.82-1.33-1.1-1.33-2.52 0-0.89 0.83-1.93 1.12-2.33 0.64-0.4-0.47-0.98-3.39-1.28-6.5l-0.56-5.64zm-40.66 4.08c-0.7 0.88-1.32 3.66-1.36 6.19-0.08 4.38 0.16 4.78 4.92 8.41 2.75 2.1 5.56 3.81 6.25 3.81 0.89 0.01 1.07-1.07 0.62-3.74-0.36-2.12-0.14-4.73 0.5-6 0.62-1.24 1.91-2.24 2.88-2.23 0.96 0.01 5.57 3.36 10.25 7.44 4.67 4.08 10.96 8.91 13.98 10.73 3.01 1.82 7.74 4.08 10.5 5.03 2.76 0.94 6.7 1.73 8.77 1.75q3.75 0.03 6.31-2.22c1.62-1.43 2.77-3.72 3.14-6.25 0.43-2.99-0.04-5.39-1.86-9.5-1.35-3.03-4.33-7.41-6.64-9.75-2.31-2.34-4.43-4.14-4.71-4-0.29 0.14-0.07 2.27 0.47 4.75 0.54 2.47 1 6.53 1.02 9 0.03 2.47-0.3 6.02-0.72 7.87-0.42 1.86-1.66 3.82-2.76 4.35-1.43 0.7-3.15 0.52-6-0.64-2.2-0.9-6.03-3.46-8.5-5.7-2.48-2.24-7.43-6.44-11-9.33-3.58-2.89-8.75-6.65-11.5-8.37-3.46-2.16-6.28-3.13-9.14-3.15-2.6-0.02-4.61 0.56-5.42 1.55zm126.37 0.98c-1.2 0.87-3.92 3.91-6.05 6.76-2.13 2.85-5.37 7.88-7.22 11.18-1.84 3.3-4.12 7.35-5.05 9-0.94 1.65-3.53 7.28-5.76 12.5-2.23 5.22-5.85 14.45-8.04 20.5-2.2 6.05-4.5 12.57-5.12 14.5-0.62 1.93-2.65 8.9-4.51 15.5-1.86 6.6-4.29 16.72-5.4 22.5-1.11 5.78-3.16 17.93-4.56 27-1.4 9.07-2.84 20.55-3.22 25.5-0.37 4.95-0.39 10.24-0.03 11.75 0.36 1.51 2.33 4.74 4.4 7.18 2.06 2.44 4.46 5.48 5.32 6.75 0.87 1.28 3.8 3.79 6.5 5.59 4.89 3.25 5.02 3.27 16.93 3.25 6.6-0.02 14.47-0.47 17.5-1 3.02-0.53 12.47-2.31 21-3.95 8.52-1.63 21.35-4.37 28.5-6.07 7.15-1.7 17.27-3.97 22.5-5.06 5.22-1.08 10.51-1.96 11.75-1.95 1.93 0.01 2.24 0.54 2.23 3.76-0.01 2.06-0.65 7.8-1.42 12.75-0.78 4.95-2 11.48-2.73 14.5-0.72 3.02-2.89 8.65-4.82 12.5-3.16 6.29-4.07 7.28-9.01 9.77-3.03 1.52-6.97 2.75-8.75 2.75-1.79-0.01-4.49-0.97-6-2.14-1.63-1.25-3.46-1.86-4.5-1.5-1.04 0.37-1.75 1.64-1.75 3.12 0 1.37 1.16 5.54 2.58 9.25 2.52 6.58 2.55 6.84 0.87 10.25-0.95 1.93-3.13 5.27-4.84 7.42-1.71 2.16-4.58 4.52-6.36 5.25-1.79 0.73-6.29 1.32-10 1.32-3.72-0.01-9-0.61-11.75-1.34-2.75-0.73-9.5-3.48-15-6.13-5.5-2.64-15.4-7.37-22-10.52-6.6-3.14-18.64-8.48-26.75-11.86-8.12-3.38-14.98-6.14-15.25-6.14-0.28 0-2.42-0.87-4.75-1.93-2.34-1.05-7.63-3.12-11.75-4.58q-7.51-2.66-11-2.14c-2 0.29-4.09 0.01-4.87-0.67-1.16-1-1.27 3.37-0.67 28.32 0.41 17.03 1.14 30.35 1.75 31.5 0.57 1.1 1.99 3.02 3.16 4.28 1.17 1.25 3.14 2.26 4.38 2.25 1.23-0.02 3.15-1.16 4.25-2.53 1.1-1.38 1.77-2.95 1.5-3.5-0.28-0.55-1.29-1.01-2.25-1.03-0.97-0.02-2.65 0.89-3.75 2.02-1.1 1.13-2.36 1.71-2.79 1.28-0.43-0.42-1.19-7.52-1.68-15.77-0.49-8.25-1.15-21.41-1.46-29.25l-0.57-14.25c10.34 11.46 12.7 13.13 19.89 16.29 4.73 2.08 14.91 6.29 22.61 9.35 7.7 3.07 16.92 6.72 20.5 8.12 3.57 1.4 8.92 3.94 11.89 5.64 2.96 1.71 5.83 4 6.38 5.1 0.54 1.1 1.56 5.37 2.25 9.5 0.7 4.12 1.06 10.65 0.8 14.5-0.27 3.85-1.12 10.37-1.9 14.5-0.9 4.79-3.2 11.11-6.36 17.5-2.71 5.5-6.88 12.2-9.25 14.89-2.37 2.68-6 5.72-8.06 6.75-2.07 1.02-4.65 1.86-5.75 1.86-1.1 0-3.35-0.68-5-1.5-1.65-0.82-4.1-2.96-5.43-4.75-1.33-1.79-4.2-7.07-6.37-11.75-2.17-4.68-5.24-11.81-6.82-15.86-1.59-4.05-3.67-8.22-4.63-9.25-0.97-1.04-2.32-1.74-3-1.56-0.69 0.18-1.4 1.64-1.57 3.25-0.17 1.6 0.88 6.74 2.35 11.42 1.46 4.68 4.64 12.66 7.06 17.75 3.02 6.33 6.22 11.18 10.16 15.37 3.16 3.37 7.77 7.28 10.25 8.7 3.32 1.9 5.93 2.57 10 2.58 3.41 0.01 7.01-0.72 9.5-1.93 2.2-1.07 6.94-4.87 10.53-8.46 3.6-3.58 7.94-9.21 9.66-12.51 1.72-3.3 4.25-9.38 5.62-13.5 1.38-4.13 3.06-10.43 3.73-14 0.68-3.57 1.23-11.23 1.22-17 0-7.17-0.54-12.09-1.68-15.5-0.93-2.75-1.55-5.09-1.38-5.19 0.16-0.11 4.57 1.43 9.8 3.41 7.37 2.8 11.4 3.7 18 4.05 4.67 0.25 10.3-0.03 12.5-0.62 2.2-0.59 6.2-2.55 8.89-4.36 2.69-1.81 5.94-5.09 7.22-7.29 1.28-2.2 2.6-6.02 2.94-8.5 0.33-2.48 0.12-6.41-0.47-8.75l-1.08-4.25c6.2 0 10.36-0.89 13.25-1.97 3.07-1.15 7.02-3.74 9.53-6.25 2.66-2.66 5.21-6.65 6.75-10.53 1.36-3.44 3.21-9.74 4.13-14 0.99-4.66 1.69-12.75 1.75-20.28l0.09-12.52c-5.85-8.17-9.62-11.51-14.06-14.28l-6.94-4.34c-19.64 0.86-25.87 1.94-40 5.51-9.9 2.49-22.73 5.67-28.5 7.05-5.78 1.37-12.53 2.78-15 3.13-4.42 0.61-4.5 0.57-4.5-2.2 0-2.64-0.26-2.81-4-2.73-2.2 0.04-6.48 1.22-9.5 2.61-3.03 1.4-6.97 2.82-8.75 3.17l-3.25 0.63c0.01-12.79 0.7-21.68 1.53-28 0.83-6.32 2.88-18.25 4.54-26.5 1.67-8.25 4.14-19.05 5.49-24 1.35-4.95 3.62-12.82 5.05-17.5 1.42-4.68 3.84-12.1 5.37-16.5 1.52-4.4 4.36-11.83 6.29-16.5 1.94-4.67 4.65-10.97 6.02-14 1.38-3.03 4.19-8.42 6.24-12 2.05-3.58 5.17-8.19 6.93-10.25 2.22-2.6 4.02-3.75 5.87-3.75q2.67 0 4.57 2.75c1.04 1.51 3.76 7.47 6.05 13.25 2.28 5.78 5.81 14.31 7.85 18.97 2.03 4.67 4.93 10.4 6.45 12.75 1.51 2.36 3.65 4.73 4.75 5.28 1.1 0.55 2.51 0.66 3.14 0.25 0.64-0.43 0.91-2.04 0.61-3.75-0.28-1.65-2.6-8.29-5.14-14.75-2.53-6.46-4.61-12.2-4.61-12.75 0-0.55-2.51-6.29-5.58-12.75-3.07-6.46-7.27-13.78-9.34-16.25-2.07-2.47-5.98-5.97-8.68-7.77-2.84-1.9-6.16-3.27-7.9-3.26-1.65 0.01-3.99 0.73-5.19 1.59zm-251.5 12.12c-0.3 0.45-1.37 3.29-2.37 6.32-1.15 3.49-1.84 8.62-1.88 14.04-0.05 6.52 0.35 9.19 1.69 11.25 1.13 1.76 2.63 2.71 4.25 2.71 1.49 0 3.09-0.91 3.97-2.25 0.81-1.24 1.8-4.5 2.2-7.25 0.55-3.78 0.44-4.82-0.47-4.25-0.66 0.41-1.19 1.31-1.17 2 0.02 0.69-0.88 2.04-2 3-1.81 1.56-2.2 1.58-3.53 0.25-0.83-0.83-1.74-2.96-2.02-4.75-0.29-1.79 0.1-7.3 0.86-12.25 0.76-4.95 1.3-9.14 1.2-9.32-0.1-0.17-0.43 0.05-0.73 0.5zm112.91 5.57c-1.36 2.89-3.16 7.28-4.01 9.75-0.85 2.47-1.82 6.75-2.14 9.5-0.42 3.56-0.06 6.44 1.23 10 1.31 3.62 2.63 5.38 4.76 6.38 2.61 1.24 3.3 1.18 6.23-0.5 2.13-1.22 3.66-3.11 4.36-5.38 0.59-1.92 0.79-4.96 0.46-6.75-0.34-1.79-0.95-3.26-1.36-3.28-0.42-0.02-1.65 0.88-2.75 2-1.1 1.11-2.68 2.21-3.5 2.42-0.83 0.22-2.18 0.01-3-0.46-1.04-0.6-1.46-2.33-1.37-5.65 0.07-2.63 1.05-8.15 2.18-12.28 1.13-4.12 2.25-8.29 2.5-9.25 0.24-0.96 0.09-1.75-0.34-1.75-0.43 0-1.9 2.36-3.25 5.25zm32.51 2c-0.54 0.69-1.88 3.05-2.98 5.25-1.09 2.2-2.55 6.47-3.25 9.5-0.69 3.03-0.98 7.3-0.65 9.5 0.34 2.2 1.3 5.01 2.13 6.25q1.52 2.25 4.52 2.25c1.66 0 3.89-0.89 5-2 1.4-1.41 2-3.33 2-6.5 0-2.47-0.34-4.7-0.75-4.95-0.42-0.25-1.54 0.42-2.5 1.5-0.97 1.07-2.65 1.95-3.75 1.95-1.24 0-2.23-0.86-2.59-2.25-0.33-1.24 0.32-5.85 1.44-10.25 1.11-4.4 2.27-8.79 2.57-9.75 0.3-0.96 0.37-1.75 0.17-1.75-0.2 0-0.81 0.56-1.36 1.25zm27.37 16.25c-0.57 3.55-0.4 6.01 0.59 8.5 0.81 2.06 2.19 3.63 3.34 3.82 1.08 0.18 2.53-0.38 3.22-1.25 0.68-0.86 1.02-2.47 0.75-3.57-0.28-1.1-0.95-2-1.5-2-0.55 0-1 0.45-1 1 0 0.55-0.68 1-1.5 1-0.93 0-1.69-1.24-1.99-3.25-0.27-1.79-0.63-4.6-0.8-6.25-0.25-2.43-0.46-2.05-1.11 2zm-197.77 1.64c-0.85 1.85-2.11 5.86-2.79 8.91-0.67 3.06-1.07 9.2-0.89 13.65 0.28 6.4 0.77 8.54 2.35 10.23 1.1 1.17 3.01 2.12 4.25 2.1 1.35-0.02 2.93-1.13 3.96-2.78 0.95-1.51 1.9-5 2.12-7.75l0.4-5c-3.73 5.42-5.46 7-6.24 7-0.79 0-2-1.12-2.7-2.5-0.69-1.37-1.25-4.3-1.23-6.5 0.03-2.2 0.64-7.6 1.37-12 0.73-4.4 1.25-8.16 1.14-8.36-0.1-0.2-0.88 1.15-1.74 3zm291.04 0.52c-1.37 2.11-3.73 6.76-5.26 10.34-1.96 4.61-2.95 8.98-3.39 15-0.5 6.98-0.31 8.99 1.08 11.25 1.42 2.3 2.3 2.71 5.38 2.5 3.28-0.22 3.93-0.74 5.89-4.75 1.22-2.47 2.52-6.08 2.91-8l0.7-3.5c-4.79 5.81-7.08 7.5-8.18 7.5-1.41 0-2.27-0.97-2.91-3.25q-0.91-3.25 0.41-9.75c0.72-3.58 2.38-9.63 3.68-13.46 1.3-3.83 2.32-7.14 2.26-7.35-0.05-0.21-1.21 1.35-2.57 3.47zm41.42 13c-0.59 1.01-1.62 4.54-2.3 7.84-0.7 3.42-0.97 8.47-0.61 11.75 0.34 3.16 1.18 6.89 1.87 8.28 0.89 1.8 2.04 2.52 4 2.5 1.71-0.02 3.31-0.88 4.25-2.28 0.83-1.24 1.48-4.28 1.44-6.75l-0.07-4.5c-2.61 5.07-4.05 6.55-4.87 6.56-0.83 0.01-2.15-1.46-2.94-3.27-1.16-2.67-1.24-4.99-0.42-12.29 0.56-4.95 0.95-9.15 0.87-9.34-0.08-0.18-0.63 0.49-1.22 1.5zm-323.85 28.09c-0.37 3.16-0.46 7.1-0.2 8.75 0.27 1.65 1.11 4.35 1.88 6 0.91 1.96 2.26 3.11 3.89 3.31 1.37 0.17 2.82-0.28 3.22-1 0.41-0.72 0.73-3.34 0.71-5.81l-0.02-4.5c-2.42 5.38-3.44 6.33-4.42 6-0.83-0.28-1.8-1.74-2.17-3.25-0.36-1.51-0.69-5.56-0.72-9-0.03-3.44-0.37-6.25-0.77-6.25-0.39 0-1.02 2.59-1.4 5.75zm28.59-3.32c-1.12 0.65-2.93 2.73-4.03 4.63-1.26 2.17-2.01 5.29-2.02 8.44-0.01 2.75 1.11 9.39 2.5 14.75 1.38 5.36 4.1 13.91 6.04 19 3.18 8.33 3.31 9.05 1.34 7.25-1.21-1.1-4.26-3.88-6.78-6.18-2.52-2.3-7.28-6.1-10.58-8.44-3.3-2.35-8.37-5.08-11.25-6.07-2.89-1-6.38-1.81-7.75-1.81-1.38 0-4.19 0.7-6.25 1.56-2.07 0.86-4.08 2.1-4.49 2.75-0.4 0.66-0.69 3.89-0.65 7.19 0.05 3.3 0.4 7.13 0.79 8.5 0.49 1.77 2 3 5.15 4.2 2.44 0.93 6.13 1.72 8.2 1.75 3.05 0.04 4.16-0.51 6-3.01 1.81-2.46 2.73-2.93 4.75-2.42 1.37 0.35 6.3 3.19 10.95 6.31 4.64 3.12 11.96 9.16 16.25 13.42 4.29 4.26 8.25 7.53 8.8 7.25 0.55-0.28 1-2.41 1-4.75 0-2.34-0.64-6.5-1.43-9.25-0.8-2.75-3.8-11.75-6.67-20-4.12-11.8-5.25-16.38-5.32-21.5l-0.08-6.5c6.2 0.13 9.57 0.35 11.5 0.58 3.43 0.41 3.49 0.35 3.39-3.08-0.06-1.93-0.85-5.19-1.75-7.25-1.15-2.63-2.76-4.24-5.39-5.39-2.07-0.9-5.2-1.97-6.97-2.38-1.98-0.45-3.99-0.28-5.25 0.45zm282.54 3.57c-0.51 0.82-0.92 5.1-0.91 9.5 0.02 4.61 0.73 10.22 1.68 13.25 0.95 2.99 2.62 5.9 3.91 6.76 1.23 0.83 2.58 1.5 3 1.5 0.41-0.01 1.65-0.91 2.75-2.01q2-2 2-6c0-2.2-0.31-4.79-0.68-5.75-0.54-1.38-0.93-1.02-1.84 1.75-0.79 2.36-1.78 3.5-3.06 3.5-1.13 0-2.47-1.21-3.3-3-0.77-1.65-1.68-7.05-2.02-12-0.41-6.14-0.9-8.52-1.53-7.5zm-218.51 2.5c-0.03 1.65 1.08 7.28 2.46 12.5 1.39 5.22 3.23 11.3 4.09 13.5 0.87 2.2 3.3 6.93 5.4 10.5 2.1 3.57 6.22 9.08 9.15 12.24 4.9 5.26 5.69 5.73 9.66 5.75 3.39 0.01 4.93-0.59 7.11-2.74 2.41-2.38 2.73-3.36 2.36-7.25-0.23-2.47-1.85-7.84-3.61-11.92-1.75-4.09-3.63-7.58-4.18-7.75-0.62-0.2-0.91 2.51-0.75 7.17 0.24 7.36 0.2 7.52-2.5 8.51-2.17 0.8-3.39 0.63-5.75-0.78-1.65-0.98-4.81-4.48-7.01-7.76-2.21-3.28-6.17-11.15-8.8-17.47-2.64-6.32-5.42-12.85-6.18-14.5l-1.39-3zm54.25 4.61c-0.6 1.32-1.66 5.32-2.36 8.89-0.75 3.87-1.02 9.53-0.67 14 0.32 4.12 1.17 8.76 1.9 10.29 0.72 1.54 2.22 3.04 3.32 3.35 1.1 0.3 3.01 0.28 4.25-0.04 1.41-0.38 2.63-1.81 3.27-3.85 0.55-1.79 0.98-5.28 0.95-7.75l-0.06-4.5c-3.32 6.37-4.59 7.51-6.16 7.53-1.83 0.02-2.52-0.87-3.69-4.75-1.2-4.01-1.24-6.4-0.21-14.76 0.67-5.49 1.07-10.17 0.88-10.39-0.18-0.22-0.83 0.67-1.42 1.98zm189.79 0.64c-0.52 0.96-1.89 6.93-3.03 13.25-1.29 7.1-2.09 15.71-2.09 22.5 0 7.96 0.6 13.35 2.16 19.5 1.18 4.68 2.72 9.85 3.42 11.5 0.71 1.65 2.22 4.01 3.36 5.25 1.14 1.24 3.32 2.53 4.83 2.88 1.51 0.34 4.44 0.12 6.5-0.5 2.98-0.9 4.15-2 5.71-5.38 1.09-2.37 2.26-7.79 2.64-12.25 0.37-4.4 0.39-9.69 0.04-11.75-0.35-2.06-1.09-3.75-1.64-3.75-0.55 0-1.49 2.14-2.09 4.75-0.6 2.61-1.72 5.99-2.5 7.5-0.78 1.51-2.51 3.31-3.85 4-2.06 1.05-2.85 0.97-5-0.5-1.49-1.02-3.48-4.15-4.75-7.5-2.03-5.31-2.19-7.49-2.19-28.5 0.01-12.51-0.12-22.75-0.28-22.75-0.15 0-0.71 0.79-1.24 1.75zm-51.92 5.25c-2.3 1.65-4.58 3.79-5.07 4.75-0.48 0.96-3.04 8.28-5.67 16.25-2.64 7.97-5.84 16.19-7.12 18.25-1.27 2.06-2.77 3.75-3.32 3.75-0.55 0-1.68-1.57-2.5-3.5-0.83-1.93-1.97-5.64-2.53-8.25-0.57-2.61-1.36-8.08-1.75-12.16-0.7-7.17-0.63-7.5 2.03-10.25 1.51-1.56 2.75-3.29 2.75-3.84 0-0.55-1.46-2.11-3.25-3.47-1.79-1.36-4.15-2.5-5.25-2.53-1.1-0.04-2.9 0.9-4 2.08-1.74 1.88-1.97 3.34-1.76 11.29 0.13 5.06 0.97 11.36 1.87 14.13 0.9 2.75 3.27 8.14 5.26 11.98 2 3.83 5.2 8.66 7.13 10.71 2.48 2.66 4.37 3.76 6.5 3.8 1.87 0.04 3.83-0.8 5.19-2.21 1.21-1.26 3.57-5.32 5.25-9.03 1.68-3.71 4.24-10.46 5.69-15 1.45-4.54 3.47-10.16 4.5-12.5 1.03-2.34 3.11-5.38 4.62-6.75 1.51-1.38 3.31-2.51 4-2.5 0.78 0 1.06 0.85 0.74 2.25-0.28 1.24-2.27 9.22-4.42 17.75-2.15 8.53-4.55 17.75-5.34 20.5-0.79 2.75-2.79 7.7-4.45 11-1.65 3.3-4.42 7.46-6.15 9.25-2.43 2.52-2.8 3.36-1.63 3.75 0.82 0.28 2.96 0.21 4.75-0.14 1.79-0.36 4.37-1.2 5.75-1.88 1.37-0.67 3.96-2.86 5.75-4.85 1.79-2 3.95-5.32 4.81-7.38 0.86-2.06 2.83-8.47 4.37-14.25 1.55-5.78 3.54-13.65 4.43-17.5 0.88-3.85 1.61-8.69 1.62-10.75 0.01-2.23-0.9-5.15-2.23-7.19-1.24-1.89-4.05-4.6-6.25-6.01-2.2-1.42-5.38-2.57-7.07-2.56-1.81 0-4.8 1.25-7.25 3.01zm-231.01 12c-1.12 2.47-2.53 6.64-3.11 9.25-0.82 3.65-0.75 5.62 0.28 8.5 1.13 3.15 1.85 3.79 4.5 4 2.32 0.18 3.58-0.35 4.74-2 0.98-1.4 1.36-3.28 1-5-0.32-1.51-1.03-2.75-1.58-2.75-0.55 0-1.23 0.45-1.5 1-0.28 0.55-1.51 1-2.75 1.01-2.17 0.01-2.22-0.21-1.5-6 0.41-3.31 1.2-6.91 1.75-8.01 0.55-1.1 0.82-2.56 0.61-3.25-0.21-0.69-1.31 0.78-2.44 3.25zm144.37 20.25c-1.46 3.44-3.28 8.72-4.05 11.75-0.77 3.03-1.67 7.07-2.02 9-0.34 1.93-0.33 7.32 0.03 12 0.45 5.96 1.21 9.25 2.51 11 1.49 2 2.64 2.46 5.68 2.28 2.09-0.11 4.6-1.01 5.56-2 0.97-0.98 2.47-4.48 3.35-7.78 0.87-3.3 1.43-7.13 1.24-8.5-0.32-2.3-0.55-2.14-2.86 2-1.91 3.43-3.16 4.56-5.24 4.75-2.28 0.21-2.99-0.34-4.24-3.25-0.83-1.93-1.51-5.19-1.51-7.25-0.01-2.06 1.14-9.38 2.55-16.25 1.41-6.88 2.71-12.84 2.89-13.25 0.18-0.41-0.02-0.75-0.45-0.75-0.43 0-1.97 2.81-3.44 6.25zm-132.05 9.5c-1.49 3.16-3.51 8.9-4.5 12.75-0.99 3.85-1.58 8.35-1.31 10 0.27 1.65 1.13 5.14 1.9 7.75 1.22 4.07 1.85 4.82 4.42 5.25 1.67 0.28 4.33-0.17 6-1 2.05-1.02 3.35-2.69 4.11-5.25 0.61-2.06 0.83-5.21 0.5-7-0.34-1.79-0.84-3.25-1.11-3.25-0.28 0-1.85 1.12-3.5 2.5-1.65 1.37-3.45 2.5-4 2.5-0.55 0-1.68-0.68-2.5-1.5-0.83-0.82-1.48-2.74-1.45-4.25 0.03-1.51 1.1-6.57 2.38-11.25 1.29-4.68 2.58-9.51 2.87-10.75 0.29-1.24 0.16-2.25-0.29-2.25-0.46 0-2.04 2.59-3.52 5.75zm246.53 6.85c-2.1 4.31-3.64 9.34-4.12 13.4-0.53 4.45-0.39 7.29 0.42 9 0.67 1.39 2.19 2.61 3.44 2.75 1.23 0.14 3.03-0.6 3.99-1.64 0.96-1.04 2.29-3.63 2.96-5.75 0.66-2.12 1-3.97 0.75-4.11-0.25-0.14-1.53 0.99-2.85 2.5-2.16 2.49-2.55 2.61-4.12 1.25-1.36-1.17-1.61-2.48-1.17-6 0.32-2.47 1.41-7.36 2.44-10.86 1.03-3.49 1.81-6.6 1.74-6.9-0.07-0.29-1.64 2.57-3.48 6.36zm-315.02-3.1c0.03 1.1 1.58 5.82 3.46 10.5 1.88 4.68 4.54 10.53 5.92 13 1.37 2.47 5.11 7.37 8.31 10.88 3.19 3.51 7.05 7 8.56 7.75 1.51 0.75 3.87 1.37 5.25 1.37 1.44 0 3.57-1.16 5.03-2.75 1.4-1.51 2.53-3.65 2.53-4.75-0.01-1.1-1.56-5.15-3.45-9-1.89-3.85-4.23-7.68-5.2-8.5-1.62-1.39-1.7-1.31-1.02 1 0.4 1.37 1 4.3 1.33 6.5 0.5 3.39 0.27 4.19-1.56 5.25-1.19 0.69-2.95 1.04-3.91 0.79-0.96-0.25-3.06-1.48-4.67-2.75-1.6-1.26-4.58-4.76-6.61-7.79-2.04-3.03-5.63-9.1-7.98-13.5-2.35-4.4-4.67-8.45-5.15-9-0.54-0.62-0.86-0.24-0.84 1zm244.54 7c0.35 2.2 2.04 7.37 3.77 11.5 2.08 4.94 4.95 9.46 8.42 13.25 3.93 4.28 5.97 5.76 8.02 5.78 1.52 0.02 3.64-0.9 4.75-2.06 1.5-1.57 1.85-2.89 1.4-5.28-0.34-1.75-1.81-5.22-3.28-7.69l-2.67-4.5c0.43 7.45 0.03 9.95-0.69 10.71-1 1.04-1.72 1.05-3.75 0.04-1.38-0.69-3.6-2.71-4.93-4.5-1.33-1.79-4.5-7.3-7.04-12.25-4.01-7.81-4.54-8.47-4-5zm-289.27 5.68c-0.64 1.83-1.89 6.92-2.77 11.32-0.88 4.4-2.06 12.5-2.61 18-0.68 6.78-0.67 13.22 0.03 20 0.57 5.5 2.47 15.18 4.22 21.5 2.79 10.09 3.68 12.01 7.27 15.71 3.52 3.62 4.68 4.22 8.34 4.25 2.34 0.02 5.26-0.34 6.5-0.81 1.24-0.47 3.67-3.06 5.41-5.75 2.49-3.85 3.5-7.04 4.74-14.9 0.87-5.5 1.58-11.24 1.59-12.75 0-1.61-0.92-3.57-2.24-4.72-1.24-1.08-2.59-1.76-3-1.5-0.41 0.26-0.74 1.26-0.73 2.22 0.01 0.96-0.78 4.18-1.75 7.15-0.97 2.98-2.78 6.46-4.02 7.75-1.52 1.59-3.39 2.35-5.75 2.35-2.79 0-3.99-0.66-5.9-3.25-1.32-1.79-3.41-6.4-4.65-10.25-2.04-6.36-2.28-9.38-2.61-33-0.19-14.3-0.48-26.14-0.63-26.32-0.15-0.17-0.8 1.18-1.44 3zm212.43-1.82c-3.19 0.63-6.22 1.82-6.73 2.64-0.52 0.82-0.95 3.64-0.96 6.25 0 2.61 0.47 5.99 1.05 7.5l1.06 2.75c14.24-1.18 19.73-1.89 21.38-2.34 2.97-0.81 3-0.9 2.99-7.74-0.01-3.81-0.34-7.71-0.75-8.67-0.59-1.4-1.9-1.73-6.49-1.64-3.16 0.06-8.36 0.62-11.55 1.25zm-73.2 44.41c-6.05 3.07-15.73 7.35-21.5 9.52-5.78 2.16-13.88 4.81-18 5.88-4.13 1.07-12.68 2.21-19 2.53l-11.5 0.58c-11.48 7.92-17.48 13.15-20.74 16.72-3.31 3.63-7.54 9.78-9.59 13.95-3.2 6.48-3.67 8.36-3.64 14.5 0.03 5.08 0.63 8.31 2.17 11.55 1.18 2.48 4.32 6.69 6.97 9.37 2.66 2.68 6.4 5.87 8.33 7.09 1.92 1.22 6.65 3.48 10.5 5.01 3.85 1.53 11.5 3.58 17 4.56 5.5 0.97 14.61 2.04 20.25 2.37l10.25 0.6c-0.86-10.46-0.69-14.18-0.17-15 0.52-0.82 1.45-1.16 2.06-0.75 0.61 0.41 1.67 4.19 2.36 8.39l1.25 7.64c23.25-0.86 31.46-1.6 33.25-2.19 2.62-0.88 3.25-1.62 3.23-3.84 0-1.51-0.87-4.55-1.92-6.75-1.05-2.2-4.69-6.48-8.1-9.5-3.4-3.02-8.6-7.75-11.54-10.5-5.07-4.73-5.36-5.27-5.41-10-0.04-4.03 0.58-5.95 3.22-9.91 1.8-2.7 4.62-6.04 6.27-7.41 1.65-1.37 5.47-3.62 8.5-4.99 3.02-1.37 7.97-2.7 11-2.96 3.49-0.29 6.78 0.06 9 0.97 1.92 0.78 4.68 2.97 6.12 4.86 1.45 1.89 3.24 5.24 3.99 7.44 0.84 2.45 1.34 8.08 1.3 14.5-0.06 8.26-0.53 11.68-2.22 16-1.19 3.02-3.93 8.2-6.11 11.5-2.17 3.3-6.56 8.59-9.76 11.75-3.2 3.17-8.3 7.05-11.32 8.63-3.03 1.58-8.43 3.38-12 3.99-3.58 0.61-8.19 1.34-10.25 1.62-2.06 0.28-3.75 0.96-3.75 1.51 0 0.55 0.96 3.81 2.14 7.25 1.17 3.44 3.47 8.95 5.11 12.25 1.63 3.3 4.83 8.44 7.11 11.42 2.28 2.98 5.49 6.24 7.14 7.24 1.65 1.01 4.46 1.83 6.25 1.84 1.79 0 4.49-0.62 6-1.38 1.51-0.76 4.44-3.23 6.5-5.5 2.06-2.27 5.05-6.71 6.64-9.87 1.59-3.16 4.03-9.13 5.41-13.25 1.39-4.13 3.42-12 4.5-17.5 1.09-5.5 3.46-17.88 5.28-27.5l3.31-17.5c-12.62-27.13-20.1-43.32-24.76-53.5-4.66-10.18-8.85-18.57-9.3-18.66-0.46-0.08-5.78 2.36-11.83 5.43zm225.2 4.48c0.25 3.44 1.09 8.84 1.87 12 0.79 3.16 2.49 7.89 3.78 10.5 1.3 2.61 3.55 5.76 5 7 2.24 1.9 3.12 2.09 5.65 1.25 2.07-0.69 3.19-1.85 3.62-3.75 0.33-1.51 0.29-4.32-0.11-6.25-0.4-1.93-1.21-4.63-1.81-6-1.03-2.37-1.12-2.26-1.64 2-0.52 4.2-0.76 4.5-3.53 4.5-2.42 0-3.39-0.74-5.23-4-1.25-2.2-3.17-8.39-4.28-13.75-1.1-5.36-2.4-9.75-2.89-9.75-0.48 0-0.68 2.81-0.43 6.25zm-99.88 8.65c-1.83 2.15-4.67 6.4-6.32 9.45l-3 5.53c3.49 7.07 4.84 9.13 5.25 9.13 0.41 0.01 2.4-2.8 4.41-6.25 2.01-3.44 4.4-6.94 5.3-7.76 1.5-1.38 1.62-0.64 1.58 9.25-0.02 6.53 0.35 10.75 0.96 10.75 0.55 0 1.73-3.26 2.63-7.25 0.9-3.99 1.42-9.05 1.15-11.25-0.26-2.2-1.67-6.59-3.13-9.75-1.46-3.16-3.29-5.75-4.08-5.75-0.78 0-2.92 1.76-4.75 3.9zm45.68 5.63c-6.05 2.43-11.56 4.42-12.25 4.44-0.69 0.02-1.25 0.37-1.24 0.78 0.01 0.41 2.82 4.94 6.25 10.05 3.43 5.12 6.91 9.51 7.74 9.76 0.82 0.25 4.65-0.63 8.5-1.96 3.85-1.33 9.7-3.55 13-4.94 4.6-1.93 5.92-2.94 5.66-4.34-0.18-1-1.11-3.62-2.06-5.82-0.95-2.2-3.5-5.93-5.66-8.3-2.75-3-4.69-4.26-6.44-4.18-1.38 0.06-7.45 2.09-13.5 4.51zm-207.36 4.4c-2.99 2.92-3.08 3.22-1.82 6.32 0.89 2.19 2.11 3.36 3.75 3.6 1.33 0.19 2.76 0.87 3.16 1.5 0.41 0.63 0.75 5.88 0.77 11.65 0.02 6.95-0.4 11.08-1.23 12.21-0.7 0.94-4.65 3.14-8.77 4.88-4.13 1.75-11.1 4.2-15.5 5.45-4.4 1.26-13.18 3.49-19.5 4.96-6.33 1.47-12.96 3.09-14.75 3.59-1.79 0.5-3.25 1.36-3.25 1.91 0 0.57 1.61 0.8 3.75 0.54 2.06-0.26 6.67-0.75 10.25-1.09 3.57-0.34 11.45-1.67 17.5-2.95 6.05-1.29 13.02-3.13 15.5-4.1 2.47-0.97 6.19-2.8 8.25-4.08 2.06-1.28 5.09-3.78 6.73-5.57 1.63-1.79 5.68-8.76 9-15.5 3.93-8 6.95-12.86 8.7-14 1.49-0.98 2.81-1.31 2.98-0.75 0.16 0.55 0.87 1.84 1.57 2.86 1.17 1.72 1.4 1.74 3.02 0.25 0.96-0.88 1.76-2.85 1.77-4.36 0.01-1.51-0.89-3.76-2-5-1.11-1.24-2.47-2.25-3.02-2.25-0.55 0-2.64 1.46-4.63 3.25-2 1.79-5.15 6.29-7 10-1.86 3.71-3.48 6.75-3.62 6.75-0.14-0.01-0.28-2.82-0.32-6.25-0.05-4.06-0.75-7.61-2-10.11-1.06-2.13-2.88-4.52-4.04-5.32-1.94-1.34-2.36-1.22-5.25 1.61zm-30.44 9.23c-0.9 1.29-2.56 4.93-3.67 8.09-1.12 3.16-2.03 8-2.03 10.75 0 2.75 0.67 6.35 1.5 8 0.82 1.65 2.51 3.27 3.75 3.59 1.43 0.37 3.16-0.12 4.75-1.35 1.93-1.5 2.55-2.99 2.75-6.59 0.14-2.56-0.09-4.64-0.5-4.62-0.41 0.02-1.65 0.7-2.75 1.52-1.1 0.82-2.79 1.48-3.75 1.47-1.42-0.02-1.75-0.92-1.76-4.77-0.01-2.61 0.81-7.61 1.81-11.11 1.01-3.49 1.77-6.57 1.69-6.83-0.08-0.27-0.88 0.57-1.79 1.85zm256.77 14.84c-0.36 3.57-0.36 8.07 0.01 10 0.36 1.93 1.29 5.52 2.05 8 0.77 2.48 2.2 5.32 3.18 6.31 1.15 1.17 2.6 1.62 4.04 1.25 1.24-0.31 2.73-1.8 3.32-3.31 0.63-1.6 0.78-4.63 0.37-7.25l-0.7-4.5c-2.02 5.84-3.05 7-4.32 7-1.12 0-2.49-1.23-3.35-3-0.8-1.65-1.71-6.67-2.01-11.17-0.31-4.49-0.87-8.54-1.24-9-0.38-0.45-0.98 2.1-1.35 5.67zm-185.21 5.25c-0.84 0.93-0.83 1.85 0.05 3.61 0.66 1.3 3.39 4 6.09 6 2.7 2 5.81 4.32 6.91 5.14 1.85 1.39 1.96 1.35 1.43-0.5-0.31-1.1-0.83-3.69-1.15-5.75-0.33-2.06-1.72-5.1-3.09-6.75-1.85-2.22-3.36-3-5.8-3-1.82 0-3.81 0.56-4.44 1.25zm85.74 14.66c-3.4 0.57-3.5 0.73-3.5 5.09v4.5c17.77 0.23 19.77 0.62 24.95 3.12 3.7 1.79 7.11 4.39 9.03 6.88 1.75 2.27 4.31 7.9 5.91 13 1.55 4.95 3.63 10.57 4.62 12.5 0.98 1.93 3.41 5.19 5.39 7.25 1.98 2.06 4.39 3.8 5.35 3.87 0.96 0.06 2.65 0.03 3.75-0.06 1.1-0.09 3.3-1.6 4.88-3.36 2.24-2.49 2.77-3.87 2.38-6.2-0.28-1.65-1.55-5.25-2.82-8l-2.31-5c-0.89 8.52-1.49 11.56-1.89 12.25-0.41 0.69-1.98 1.26-3.49 1.28-1.57 0.01-3.71-0.96-4.97-2.25-1.23-1.26-4.05-7.46-6.28-13.78-2.23-6.32-5.51-13.71-7.28-16.41-1.77-2.7-4.57-6.01-6.22-7.37-1.65-1.36-5.03-3.48-7.5-4.71-2.51-1.26-7.15-2.45-10.5-2.72-3.3-0.25-7.58-0.2-9.5 0.12zm94.55 25.09c0.35 1.37 2.39 6.21 4.54 10.75 2.4 5.07 5.96 10.46 9.24 14 2.94 3.16 6.88 6.37 8.75 7.14 2.63 1.07 3.94 1.12 5.67 0.25 1.24-0.63 2.66-1.93 3.15-2.89 0.59-1.13 0.41-3.16-0.49-5.75-0.77-2.2-2.53-5.69-3.91-7.75-1.37-2.06-2.7-3.64-2.94-3.5-0.25 0.14-0.02 2.16 0.5 4.5 0.69 3.11 0.6 4.66-0.31 5.79-0.69 0.85-1.81 1.53-2.5 1.5-0.69-0.02-2.69-1.05-4.46-2.29-1.76-1.24-5.8-6.3-8.97-11.25-3.17-4.95-6.47-9.9-7.33-11-1.53-1.95-1.55-1.93-0.94 0.5zm-270.52 27c-0.02 0.82 1.99 4.54 4.47 8.25 2.91 4.37 6.17 7.81 9.25 9.76 2.61 1.66 5.87 3.03 7.25 3.04 1.37 0.01 3.27-0.79 4.22-1.77 0.95-0.98 1.74-3.02 1.75-4.53 0.02-1.74-0.98-3.68-2.72-5.28-1.51-1.4-3.54-2.52-4.5-2.5-1.06 0.02-1.51 0.52-1.13 1.28 0.34 0.69 0.34 2.26 0 3.5-0.43 1.57-1.38 2.25-3.12 2.25-1.79 0-3.77-1.5-6.93-5.25-2.44-2.89-5.35-6.38-6.47-7.75-1.39-1.71-2.05-2.02-2.07-1zm51.36 7.67c-2.17 2.66-5.28 7.53-6.92 10.83-2.48 5.01-2.97 7.21-2.97 13.33 0 6.19 0.31 7.56 2 8.77 1.1 0.79 3.24 1.43 4.75 1.42 1.51-0.01 3.49-0.36 4.39-0.77 0.9-0.41 2.25-1.99 3-3.5 0.75-1.51 1.36-4.32 1.36-6.25 0-1.93-0.34-3.49-0.75-3.47-0.41 0.02-1.65 0.7-2.75 1.52-1.1 0.82-2.68 1.5-3.5 1.51-0.83 0.02-2.18-0.7-3-1.59-1.29-1.4-1.32-2.2-0.17-5.8 0.73-2.29 3.09-7.66 5.25-11.92 2.15-4.26 3.77-8.01 3.59-8.33-0.18-0.32-2.11 1.59-4.28 4.25zm39.14-0.92c-0.98 2.06-2.03 6.45-2.34 9.75-0.43 4.61-0.17 6.64 1.12 8.75 0.93 1.51 2.48 2.76 3.44 2.78 0.96 0.02 2.52-0.77 3.47-1.75 0.95-0.98 1.74-3.24 1.75-5.03 0.02-1.79-0.42-3.25-0.97-3.25-0.55 0-1.23 0.45-1.5 1-0.28 0.55-1.4 1-2.5 1-1.1 0-2.23-0.79-2.5-1.75-0.27-0.96 0.29-4.77 1.25-8.47 0.96-3.7 1.48-6.74 1.15-6.75-0.34-0.02-1.4 1.66-2.37 3.72zm55.8 4.39c-0.63 0.75-2.53 4.4-4.24 8.11-1.7 3.71-3.93 10.42-4.95 14.9-1.02 4.49-1.78 10.9-1.68 14.25 0.12 4.13 0.96 7.71 2.61 11.1 1.51 3.11 3.47 5.47 5.18 6.25 1.92 0.87 3.73 0.97 6 0.31 1.79-0.51 4.54-2.42 6.11-4.25 2.65-3.06 2.84-3.82 2.5-9.97-0.2-3.67-0.68-7.04-1.08-7.5-0.39-0.46-2.31 0.62-4.25 2.41-2.47 2.27-4.35 3.17-6.26 3-1.74-0.16-3.19-1.15-4.02-2.75-0.82-1.6-1.08-4.29-0.7-7.5 0.32-2.75 1.95-9.95 3.62-16 1.67-6.05 2.87-11.61 2.67-12.36-0.3-1.15-0.54-1.15-1.51 0zm43.69 30.46c-1.29 2.69-2.57 6.92-2.85 9.4-0.3 2.72 0.07 5.8 0.92 7.79 1.11 2.6 1.98 3.28 4.16 3.25 1.73-0.03 3.28-0.87 4.18-2.29 0.78-1.24 1.23-3.49 1-5-0.41-2.61-0.54-2.68-2.68-1.24-1.24 0.83-2.81 1.5-3.5 1.5-0.78-0.01-1.26-1.44-1.26-3.76-0.01-2.06 0.58-5.98 1.31-8.7 0.73-2.73 1.27-5.16 1.2-5.41-0.07-0.25-1.18 1.76-2.48 4.46z"/>
</svg>
